<svg width="28" height="22" viewBox="0 0 28 22" fill="none" xmlns="http://www.w3.org/2000/svg">
<path d="M23 1.98496C23.6 1.98496 24 1.58797 24 0.992481C24 0.396993 23.6 0 23 0H5C4.4 0 4 0.396993 4 0.992481C4 1.58797 4.4 1.98496 5 1.98496H23Z" fill="#F5A623"/>
<path d="M23 21.8346C23.6 21.8346 24 21.4376 24 20.8421C24 20.2466 23.6 19.8496 23 19.8496H5C4.4 19.8496 4 20.2466 4 20.8421C4 21.4376 4.4 21.8346 5 21.8346H23Z" fill="#F5A623"/>
<path d="M27 9.92481H1C0.4 9.92481 0 10.3218 0 10.9173C0 11.5128 0.4 11.9098 1 11.9098H27C27.6 11.9098 28 11.5128 28 10.9173C28 10.3218 27.6 9.92481 27 9.92481Z" fill="#F5A623"/>
</svg>
